HIERARCHY
ROOT root
{
	OFFSET	0	13.1	24.9
	CHANNELS 6  Xposition Yposition Zposition Xrotation Yrotation Zrotation
	JOINT spine_1
	{
		OFFSET	0	9.99999	0
		CHANNELS 3  Xrotation Yrotation Zrotation
		JOINT spine_2
		{
			OFFSET	0	112	-10
			CHANNELS 3  Xrotation Yrotation Zrotation
			JOINT spine_3
			{
				OFFSET	0	206.5	19.3
				CHANNELS 3  Xrotation Yrotation Zrotation
				JOINT spine_4
				{
					OFFSET	0	110.4	14.6
					CHANNELS 3  Xrotation Yrotation Zrotation
					JOINT neck_1
					{
						OFFSET	0	71.8	-50.3
						CHANNELS 3  Xrotation Yrotation Zrotation
						JOINT neck_2
						{
							OFFSET	0	86.2	-25.8
							CHANNELS 3  Xrotation Yrotation Zrotation
							JOINT head_ee
							{
								OFFSET	0	179.8	-8.7
								CHANNELS 3  Xrotation Yrotation Zrotation
								End Site
								{
									OFFSET	1	0	0
								}
							}
						}
					}
					JOINT left_clavicle
					{
						OFFSET	-43.2	22.4	-70.8
						CHANNELS 3  Xrotation Yrotation Zrotation
						JOINT left_shoulder
						{
							OFFSET	-93.9	-5.79999	48.7
							CHANNELS 3  Xrotation Yrotation Zrotation
							JOINT left_elbow
							{
								OFFSET	-291.4	-30.8	15.2
								CHANNELS 3  Xrotation Yrotation Zrotation
								JOINT left_lowarm_twist
								{
									OFFSET	-110.7	-3.89999	13.6
									CHANNELS 3  Xrotation Yrotation Zrotation
									JOINT left_hand
									{
										OFFSET	-110.7	-3.89999	13.6
										CHANNELS 3  Xrotation Yrotation Zrotation
										JOINT left_ee
										{
											OFFSET	-80.8	-5.10001	12.1
											CHANNELS 3  Xrotation Yrotation Zrotation
											End Site
											{
												OFFSET	1	0	0
											}
										}
									}
								}
							}
						}
					}
					JOINT right_clavicle
					{
						OFFSET	43.2	22.4	-70.8
						CHANNELS 3  Xrotation Yrotation Zrotation
						JOINT right_shoulder
						{
							OFFSET	93.9	-5.79999	48.7
							CHANNELS 3  Xrotation Yrotation Zrotation
							JOINT right_elbow
							{
								OFFSET	291.4	-30.8	15.2
								CHANNELS 3  Xrotation Yrotation Zrotation
								JOINT right_lowarm_twist
								{
									OFFSET	110.7	-3.89999	13.6
									CHANNELS 3  Xrotation Yrotation Zrotation
									JOINT right_hand
									{
										OFFSET	110.7	-3.89999	13.6
										CHANNELS 3  Xrotation Yrotation Zrotation
										JOINT right_ee
										{
											OFFSET	80.8	-5.10001	12.1
											CHANNELS 3  Xrotation Yrotation Zrotation
											End Site
											{
												OFFSET	1	0	0
											}
										}
									}
								}
							}
						}
					}
				}
			}
		}
	}
	JOINT left_hip
	{
		OFFSET	-82.8	-127.5	0.300001
		CHANNELS 3  Xrotation Yrotation Zrotation
		JOINT left_knee
		{
			OFFSET	-28.2	-396.7	2.2
			CHANNELS 3  Xrotation Yrotation Zrotation
			JOINT left_ankle
			{
				OFFSET	-11.7	-411.3	35.4
				CHANNELS 3  Xrotation Yrotation Zrotation
				JOINT left_toes
				{
					OFFSET	0	-60	-88.6
					CHANNELS 3  Xrotation Yrotation Zrotation
					JOINT left_foot_ee
					{
						OFFSET	-22.5	-16.5	-42.2
						CHANNELS 3  Xrotation Yrotation Zrotation
						End Site
						{
							OFFSET	1	0	0
						}
					}
				}
			}
		}
	}
	JOINT right_hip
	{
		OFFSET	82.8	-127.5	0.300001
		CHANNELS 3  Xrotation Yrotation Zrotation
		JOINT right_knee
		{
			OFFSET	28.2	-396.7	2.2
			CHANNELS 3  Xrotation Yrotation Zrotation
			JOINT right_ankle
			{
				OFFSET	11.7	-411.3	35.4
				CHANNELS 3  Xrotation Yrotation Zrotation
				JOINT right_toes
				{
					OFFSET	0	-60	-88.6
					CHANNELS 3  Xrotation Yrotation Zrotation
					JOINT right_foot_ee
					{
						OFFSET	22.5	-16.5	-42.2
						CHANNELS 3  Xrotation Yrotation Zrotation
						End Site
						{
							OFFSET	1	0	0
						}
					}
				}
			}
		}
	}
}
MOTION
Frames: 13
Frame Time: 0.02
1227.07803035 730.097 -1689.25111284 -4.04223429639 19.6852285668 -2.54094800056 1.62813 0.138547 1.3911 1.62921 0.0497555 1.39709 1.63048 -0.205766 1.38276 1.62781 0.0151747 1.3979 -11.8871 10.8052 -4.77809 -12.1205 23.5466 -1.49812 -0.0 0.0 -0.0 6.56416 0.614603 12.7329 -31.3106 -30.3809 69.8687 0.341741 -9.60862 0.0287228 -32.6678 -2.20725 3.48589 0.0179936 7.21936 3.12475 -0.0 0.0 -0.0 9.16403 7.67627 -18.0473 3.445 24.3762 -68.4494 0.66709 18.2866 -0.107369 44.3595 0.595221 5.49584 -3.18461 -12.5562 15.0961 0.0 0.0 0.0 25.6076 11.2326 -0.200061 -53.4836 -1.53891 7.76959 13.233 20.5432 -1.90682 -15.474 0.0 0.0 -0.0 0.0 -0.0 23.6965 8.16249 -1.19739 -19.956 -0.29616 -3.03263 6.17809 11.1109 0.941615 1.70036 -0.0 -0.0 0.0 0.0 0.0 
1204.06685749 728.933 -1698.55634293 -3.90034026112 22.7479200423 -2.57240912876 1.80693 0.384064 1.53038 1.80818 0.285916 1.55171 1.81604 0.00343897 1.57782 1.81265 0.252552 1.55748 -12.0403 10.706 -5.2123 -12.2728 23.6341 -1.91299 -0.0 0.0 -0.0 5.53866 1.68855 10.7489 -32.1624 -31.3559 70.8811 0.415223 -11.6232 0.0422619 -33.7485 -2.31217 3.57649 1.37969 6.92135 11.9611 -0.0 0.0 -0.0 9.20928 7.40343 -18.1458 7.45477 23.9387 -68.8465 0.632241 17.3903 -0.0966929 44.981 0.633373 5.56563 -2.69827 -12.5296 11.9464 0.0 0.0 0.0 27.0729 15.8916 -3.33469 -55.2468 -1.70917 7.98135 7.31108 17.7934 -1.06381 -15.4806 0.0 0.0 -0.0 0.0 -0.0 22.8286 3.81312 0.384957 -21.2863 -0.278134 -3.23595 8.02496 12.996 1.22989 1.87346 -0.0 -0.0 0.0 0.0 0.0 
1204.77253401 728.933 -1699.08537833 -3.89520916347 22.5675149666 -2.58572884972 1.80693 0.384064 1.53038 1.80818 0.285916 1.55171 1.81604 0.00343897 1.57782 1.81265 0.252552 1.55748 -12.0403 10.706 -5.2123 -12.2728 23.6341 -1.91299 -0.0 0.0 -0.0 5.53866 1.68855 10.7489 -32.1624 -31.3559 70.8811 0.415223 -11.6232 0.0422619 -33.7485 -2.31217 3.57649 1.37969 6.92135 11.9611 -0.0 0.0 -0.0 9.20928 7.40343 -18.1458 7.45477 23.9387 -68.8465 0.632241 17.3903 -0.0966929 44.981 0.633373 5.56563 -2.69827 -12.5296 11.9464 0.0 0.0 0.0 27.0729 15.8916 -3.33469 -55.2468 -1.70917 7.98135 7.31108 17.7934 -1.06381 -15.4806 0.0 0.0 -0.0 0.0 -0.0 22.8286 3.81312 0.384957 -21.2863 -0.278134 -3.23595 8.02496 12.996 1.22989 1.87346 -0.0 -0.0 0.0 0.0 0.0 
1152.4892881 722.014 -1715.13717312 -1.83040046443 29.0962658692 -2.83840985684 1.45168 0.352699 1.83994 1.45354 0.234926 1.85864 1.46144 -0.113306 1.87 1.45661 0.183394 1.86443 -11.5241 9.66281 -6.22882 -11.6518 22.3284 -3.32282 -0.0 0.0 -0.0 4.62451 5.92889 9.11414 -37.5955 -33.3718 71.8194 0.415856 -11.6405 0.0423896 -36.8347 -2.62099 3.82418 3.01363 5.676 22.7503 -0.0 0.0 -0.0 9.41958 5.48385 -18.5919 17.6698 22.7855 -70.7774 0.611938 16.8641 -0.0907138 43.1269 0.521816 5.35626 -2.71116 -10.8934 12.8862 0.0 0.0 0.0 31.3381 18.939 -7.42643 -50.2592 -1.24482 7.36936 -6.16976 13.374 0.917576 -17.5688 0.0 0.0 -0.0 0.0 -0.0 20.3802 -0.575705 1.73991 -25.8188 -0.181375 -3.92459 8.82801 14.8222 1.3663 2.20275 -0.0 -0.0 0.0 0.0 0.0 
1112.4491181 725.929 -1735.07383253 -1.3280593668 32.1008864483 -2.95026684086 1.11421 0.322723 2.02166 1.11646 0.193453 2.03809 1.12386 -0.199343 2.03752 1.11809 0.124878 2.04343 -12.0322 9.49542 -6.68114 -12.172 22.281 -3.70387 -0.0 0.0 -0.0 4.21366 12.1314 8.50656 -40.6451 -36.0976 69.7303 0.374697 -10.5154 0.0344809 -39.1367 -2.85982 3.99797 3.14784 4.44206 23.263 -0.0 0.0 -0.0 8.65349 2.46074 -16.9545 17.2733 22.3888 -72.0856 0.833105 22.4256 -0.165155 38.7104 0.283891 4.84405 -2.84864 -6.55788 16.0631 0.0 0.0 0.0 33.486 16.9078 -8.42975 -45.8599 -0.881013 6.79832 -14.8373 17.4586 2.24983 -19.7195 0.0 0.0 -0.0 0.0 -0.0 17.9663 0.228327 2.69139 -28.0171 -0.114894 -4.25538 13.0228 15.1587 1.9863 3.07733 -0.0 -0.0 0.0 0.0 0.0 
1078.76837602 720.045 -1745.87050822 -1.90977653832 34.8622299692 -2.39060627434 1.47616 0.354392 2.06149 1.4785 0.222526 2.07985 1.48689 -0.165552 2.08515 1.48086 0.165763 2.08514 -11.3711 7.5816 -4.27026 -11.4521 17.1285 -2.0484 -0.0 0.0 -0.0 3.40782 17.0673 7.28945 -42.8037 -37.5604 68.622 0.298662 -8.41596 0.0219742 -42.1661 -3.18442 4.21186 3.18845 5.2873 23.8664 -0.0 0.0 -0.0 10.0369 4.6608 -19.8937 21.2717 21.5084 -72.8323 0.586497 16.2005 -0.0834741 37.1379 0.208826 4.65751 -2.47751 -4.2458 14.707 0.0 0.0 0.0 32.2133 2.31775 -3.86109 -39.3594 -0.426515 5.9084 -6.02971 29.2616 0.95481 -15.5675 0.0 0.0 -0.0 0.0 -0.0 16.4545 0.296544 2.82921 -28.4375 -0.100736 -4.31834 19.8886 13.9477 2.91096 1.06877 -0.0 -0.0 0.0 0.0 0.0 
1065.82005745 720.099 -1744.21747699 -2.01835172592 36.6189048164 -1.80485940484 1.48886 0.379747 2.12287 1.49133 0.243925 2.14272 1.50079 -0.155606 2.15094 1.49438 0.185967 2.14853 -11.1083 7.89782 -3.23208 -11.2031 17.0501 -0.995501 -0.0 0.0 -0.0 3.53288 16.9959 7.48337 -43.2277 -37.4765 68.5285 0.278535 -7.85613 0.0191258 -42.2963 -3.19862 4.22066 3.1728 5.15339 23.7046 -0.0 0.0 -0.0 9.88056 4.74571 -19.5623 20.384 21.4111 -72.4574 0.606741 16.7289 -0.089212 37.4059 0.221257 4.68945 -2.38351 -4.4173 13.9822 0.0 0.0 0.0 33.629 1.13752 -5.50965 -36.9415 -0.283741 5.56534 -6.05274 29.2446 0.958386 -15.5755 0.0 0.0 -0.0 0.0 -0.0 15.9936 0.376399 2.31011 -28.5686 -0.096225 -4.33796 20.0046 14.0158 2.92751 0.885741 -0.0 -0.0 0.0 0.0 0.0 
1040.99124987 721.303 -1744.01066941 -2.61120651248 39.2764414541 -0.982098364165 1.62869 0.305375 2.11161 1.63115 0.17042 2.12675 1.63767 -0.21988 2.12221 1.6314 0.117965 2.13031 -10.6976 8.07801 -2.62171 -10.7888 16.9852 -0.417916 -0.0 0.0 -0.0 3.32981 17.3387 7.17457 -43.844 -37.3177 68.3894 0.296988 -8.36947 0.02173 -42.8558 -3.25987 4.25814 2.83435 6.95647 21.9335 -0.0 0.0 -0.0 9.8353 5.0683 -19.4713 20.3456 21.3706 -72.518 0.605543 16.6977 -0.0888673 37.834 0.241425 4.74034 -2.29134 -4.9824 13.0801 0.0 0.0 0.0 33.6662 0.161092 -5.57067 -32.3252 -0.051995 4.89531 -5.99738 29.3296 0.950068 -14.0222 0.0 0.0 -0.0 0.0 -0.0 16.1496 4.51966 1.5944 -30.3161 -0.0318294 -4.59841 19.1836 13.4213 2.80816 0.966912 -0.0 -0.0 0.0 0.0 0.0 
1031.14557754 718.066 -1749.88642764 -4.07266677084 40.0472973743 0.573210013101 1.97246 0.435696 1.87243 1.97435 0.315687 1.89635 1.98485 -0.0233146 1.9223 1.9798 0.280513 1.90187 -10.7787 8.45038 -1.19355 -10.8874 16.7464 1.07937 -0.0 0.0 -0.0 3.45171 17.1638 7.36018 -43.7813 -37.2536 68.1091 0.280634 -7.9146 0.0194137 -42.5631 -3.22778 4.23861 3.1165 4.96848 23.231 -0.0 0.0 -0.0 10.469 5.97631 -20.8465 21.2502 21.6823 -72.2152 0.61419 16.9226 -0.0913682 37.746 0.237246 4.72989 -2.29259 -4.85786 13.1495 0.0 0.0 0.0 35.4394 -1.84781 -6.45408 -29.6341 0.0579068 4.497 -6.00907 29.7498 0.954614 -15.5519 0.0 0.0 -0.0 0.0 -0.0 15.7874 2.05444 1.43826 -28.6146 -0.0946302 -4.34485 19.5386 14.1846 2.8695 0.56191 -0.0 -0.0 0.0 0.0 0.0 
1027.59764102 718.066 -1745.42370856 -4.11805014269 40.791547699 0.643203767206 1.97246 0.435696 1.87243 1.97435 0.315687 1.89635 1.98485 -0.0233146 1.9223 1.9798 0.280513 1.90187 -10.7787 8.45038 -1.19355 -10.8874 16.7464 1.07937 -0.0 0.0 -0.0 3.45171 17.1638 7.36018 -43.7813 -37.2536 68.1091 0.280634 -7.9146 0.0194137 -42.5631 -3.22778 4.23861 3.1165 4.96848 23.231 -0.0 0.0 -0.0 10.469 5.97631 -20.8465 21.2502 21.6823 -72.2152 0.61419 16.9226 -0.0913682 37.746 0.237246 4.72989 -2.29259 -4.85786 13.1495 0.0 0.0 0.0 35.4394 -1.84781 -6.45408 -29.6341 0.0579068 4.497 -6.00907 29.7498 0.954614 -15.5519 0.0 0.0 -0.0 0.0 -0.0 15.7874 2.05444 1.43826 -28.6146 -0.0946302 -4.34485 19.5386 14.1846 2.8695 0.56191 -0.0 -0.0 0.0 0.0 0.0 
992.976457802 708.121 -1754.38924943 -7.68067968572 45.0846675071 5.08148968704 2.83751 0.319484 1.24555 2.83835 0.239586 1.26335 2.84344 0.0325419 1.28545 2.84121 0.23513 1.26418 -10.9863 8.6628 0.259134 -11.0994 16.2016 2.57052 -0.0 0.0 -0.0 3.20241 17.5747 6.98336 -43.6583 -37.3692 67.1828 0.274416 -7.74138 0.0185668 -43.235 -3.30158 4.2832 3.06528 5.47712 23.0483 -0.0 0.0 -0.0 10.7135 8.43795 -21.4052 20.7108 21.0416 -68.8321 0.591348 16.3274 -0.0848326 39.1791 0.307255 4.89924 -1.83616 -4.97574 10.0285 0.0 0.0 0.0 33.0141 -5.37707 -8.67675 -11.982 0.305006 1.81018 -4.22198 29.2514 0.666498 -13.8211 0.0 0.0 -0.0 0.0 -0.0 15.7783 2.59298 -0.408326 -29.3596 -0.0680628 -4.45609 21.5098 13.1753 3.10565 0.968488 -0.0 -0.0 0.0 0.0 0.0 
974.87724735 705.749 -1761.11599168 -8.68526898228 47.093452341 6.64864139839 2.90865 0.377871 1.22206 2.90943 0.299348 1.24362 2.91575 0.0963295 1.27551 2.9136 0.296547 1.24429 -10.099 8.41853 -0.919541 -10.185 16.4745 1.23608 -0.0 0.0 -0.0 2.62763 17.9266 6.11085 -43.5313 -37.2983 66.3637 0.319636 -8.9976 0.0251492 -44.0761 -3.39471 4.3378 2.87728 4.71153 21.4257 -0.0 0.0 -0.0 11.261 8.94664 -22.6164 20.2661 20.6522 -69.0281 0.589079 16.268 -0.084196 39.2012 0.308371 4.90185 -1.69834 -4.75775 9.21187 0.0 0.0 0.0 31.4402 -6.33436 -9.25299 -5.85272 0.196347 0.876372 -2.79566 28.9806 0.439417 -15.7026 0.0 0.0 -0.0 0.0 -0.0 15.2505 3.193 -1.37361 -29.2554 -0.0718648 -4.44055 19.3752 12.8095 2.82231 0.0884796 -0.0 -0.0 0.0 0.0 0.0 
971.602207734 705.749 -1756.51038231 -8.79468542484 47.7474352376 6.79723423184 2.90865 0.377871 1.22206 2.90943 0.299348 1.24362 2.91575 0.0963295 1.27551 2.9136 0.296547 1.24429 -10.099 8.41853 -0.919541 -10.185 16.4745 1.23608 -0.0 0.0 -0.0 2.62763 17.9266 6.11085 -43.5313 -37.2983 66.3637 0.319636 -8.9976 0.0251492 -44.0761 -3.39471 4.3378 2.87728 4.71153 21.4257 -0.0 0.0 -0.0 11.261 8.94664 -22.6164 20.2661 20.6522 -69.0281 0.589079 16.268 -0.084196 39.2012 0.308371 4.90185 -1.69834 -4.75775 9.21187 0.0 0.0 0.0 31.4402 -6.33436 -9.25299 -5.85272 0.196347 0.876372 -2.79566 28.9806 0.439417 -15.7026 0.0 0.0 -0.0 0.0 -0.0 15.2505 3.193 -1.37361 -29.2554 -0.0718648 -4.44055 19.3752 12.8095 2.82231 0.0884796 -0.0 -0.0 0.0 0.0 0.0 
